<?xml version="1.0" encoding="UTF-8"?>
<!-- Created with Inkscape (http://www.inkscape.org/) -->
<svg width="130.19mm" height="130.19mm" version="1.1" viewBox="0 0 130.19 130.19" xmlns="http://www.w3.org/2000/svg">
 <g transform="translate(-14.627 -68.74)" stroke="#397a4c">
  <circle cx="79.723" cy="133.84" r="63.613" fill-opacity="0" stroke-width="2.965"/>
  <g fill="#397a4c" stroke-width="1.141">
   <path d="m101.37 90.955c-0.62811-1.8529-2.3868-3.172-4.4596-3.172h-34.546c-2.0728 0-3.8001 1.319-4.4596 3.172l-6.5324 18.812v25.124c0 1.7273 1.4133 3.1406 3.1406 3.1406h3.1406c1.7273 0 3.1406-1.4133 3.1406-3.1406v-3.1406h37.687v3.1406c0 1.7273 1.4133 3.1406 3.1406 3.1406h3.1406c1.7273 0 3.1406-1.4133 3.1406-3.1406v-25.124zm-37.907 3.1092h32.316l3.3918 9.7671h-39.1zm38.158 31.406h-43.968v-15.703h43.968z" style="mix-blend-mode:normal"/>
   <ellipse cx="64.955" cy="117.64" rx="4.711" ry="4.7108" fill-opacity=".99608" style="mix-blend-mode:normal"/>
   <circle cx="93.22" cy="117.64" r="4.7108" style="mix-blend-mode:normal"/>
  </g>
 </g>
</svg>
