<?xml version="1.0" encoding="UTF-8"?>
<!-- Created with Inkscape (http://www.inkscape.org/) -->
<svg width="129.69mm" height="129.69mm" version="1.1" viewBox="0 0 129.69 129.69" xmlns="http://www.w3.org/2000/svg">
 <g transform="translate(-51.228 -66.925)" fill-opacity="0" stroke="#397a4c">
  <circle cx="116.07" cy="131.77" r="63.613" stroke-width="2.465"/>
  <path d="m101.11 97.462c-2.3204 0-4.1975-1.8772-4.1975-4.1975a4.1975 4.1975 0 0 1 4.1975-4.1975c2.3204 0 4.1975 1.8771 4.1975 4.1975a4.1975 4.1975 0 0 1-4.1975 4.1975m0-15.93c-6.5179 0-11.732 5.2143-11.732 11.732 0 8.7862 11.732 21.796 11.732 21.796s11.732-13.01 11.732-21.796c0-6.5178-5.2144-11.732-11.732-11.732m28.679 15.93a4.1975 4.1975 0 0 1-4.1975-4.1975c0-2.3204 1.8772-4.1975 4.1975-4.1975 2.3204 0 4.1975 1.8771 4.1975 4.1975a4.1975 4.1975 0 0 1-4.1975 4.1975m0-15.93c-6.5179 0-11.732 5.2143-11.732 11.732 0 8.7862 11.732 21.796 11.732 21.796s11.732-13.01 11.732-21.796c0-6.5178-5.2142-11.732-11.732-11.732m0 36.5c-3.3111 0-6.2572 2.0856-7.3522 5.2142h-13.974c-1.434-4.0672-5.9183-6.2051-9.9594-4.7711-4.0933 1.434-6.2312 5.9183-4.7972 9.9855 1.46 4.0672 5.9183 6.205 10.011 4.7711 2.2161-0.78239 3.9108-2.5551 4.7451-4.7711h14c1.4339 4.0672 5.9182 6.205 9.9332 4.7711 4.1193-1.4339 6.2572-5.9183 4.8232-9.9855-1.1211-3.1286-4.0933-5.2142-7.4304-5.2142zm0 11.732a3.9107 3.9107 0 0 1-3.9108-3.9107 3.9107 3.9107 0 0 1 3.9108-3.9108 3.9107 3.9107 0 0 1 3.9107 3.9108 3.9107 3.9107 0 0 1-3.9107 3.9107z" stroke-width="2.6072"/>
 </g>
</svg>
