<?xml version="1.0" encoding="UTF-8" standalone="no"?>
<!-- Created with Inkscape (http://www.inkscape.org/) -->

<svg
   width="128.99171mm"
   height="128.99171mm"
   viewBox="0 0 128.99171 128.99171"
   version="1.1"
   id="svg25853"
   inkscape:version="1.1.2 (b8e25be833, 2022-02-05)"
   sodipodi:docname="GrowBikeAverage.svg"
   xmlns:inkscape="http://www.inkscape.org/namespaces/inkscape"
   xmlns:sodipodi="http://sodipodi.sourceforge.net/DTD/sodipodi-0.dtd"
   xmlns="http://www.w3.org/2000/svg"
   xmlns:svg="http://www.w3.org/2000/svg">
  <sodipodi:namedview
     id="namedview25855"
     pagecolor="#505050"
     bordercolor="#ffffff"
     borderopacity="1"
     inkscape:pageshadow="0"
     inkscape:pageopacity="0"
     inkscape:pagecheckerboard="1"
     inkscape:document-units="mm"
     showgrid="false"
     inkscape:zoom="0.64052329"
     inkscape:cx="231.84169"
     inkscape:cy="333.32121"
     inkscape:window-width="1284"
     inkscape:window-height="970"
     inkscape:window-x="902"
     inkscape:window-y="198"
     inkscape:window-maximized="0"
     inkscape:current-layer="g25968" />
  <defs
     id="defs25850" />
  <g
     inkscape:label="Layer 1"
     inkscape:groupmode="layer"
     id="layer1"
     transform="translate(-43.729458,-60.252407)">
    <circle
       style="fill:#46e94b;fill-opacity:0.441767;stroke:#397a4c;stroke-width:1.765;stroke-miterlimit:4;stroke-dasharray:none;stroke-opacity:1"
       id="path846"
       cx="108.22531"
       cy="124.74826"
       r="63.613354" />
    <g
       id="g25968"
       transform="matrix(2.6913914,0,0,2.6913914,9.9870032,220.6546)">
      <path
         d="M 0,0 H 24 V 24 H 0 Z"
         fill="none"
         id="path25956" />
      <path
         d="m 39.207855,-50.323444 c 1.020391,0 1.855256,-0.834865 1.855256,-1.855255 0,-1.020389 -0.834865,-1.855254 -1.855256,-1.855254 -1.020391,0 -1.855255,0.834865 -1.855255,1.855254 0,1.02039 0.834864,1.855255 1.855255,1.855255 z m -9.740089,6.02958 c -2.597357,0 -4.638137,2.04078 -4.638137,4.638137 0,2.597358 2.04078,4.638137 4.638137,4.638137 2.597357,0 4.638138,-2.040779 4.638138,-4.638137 0,-2.597357 -2.040781,-4.638137 -4.638138,-4.638137 z m 0,7.884834 c -1.762493,0 -3.246696,-1.484204 -3.246696,-3.246697 0,-1.762493 1.484203,-3.246696 3.246696,-3.246696 1.762493,0 3.246698,1.484203 3.246698,3.246696 0,1.762493 -1.484205,3.246697 -3.246698,3.246697 z m 5.38024,-9.276275 2.226306,-2.226306 0.742101,0.742102 c 1.205916,1.205916 2.782884,1.948018 4.730901,1.948018 v -1.855256 c -1.391441,0 -2.504593,-0.556576 -3.339459,-1.391441 l -1.762493,-1.762493 c -0.463813,-0.371051 -0.927627,-0.556577 -1.484203,-0.556577 -0.556576,0 -1.02039,0.185526 -1.298678,0.556577 l -2.597358,2.597358 c -0.37105,0.371051 -0.556576,0.834864 -0.556576,1.298679 0,0.556576 0.185526,1.02039 0.556576,1.298678 l 2.968409,2.597357 v 4.638138 h 1.855254 v -5.751291 z m 7.606546,1.391441 c -2.597357,0 -4.638139,2.04078 -4.638139,4.638137 0,2.597358 2.040782,4.638137 4.638139,4.638137 2.597356,0 4.638137,-2.040779 4.638137,-4.638137 0,-2.597357 -2.040781,-4.638137 -4.638137,-4.638137 z m 0,7.884834 c -1.762492,0 -3.246697,-1.484204 -3.246697,-3.246697 0,-1.762493 1.484205,-3.246696 3.246697,-3.246696 1.762491,0 3.246695,1.484203 3.246695,3.246696 0,1.762493 -1.484204,3.246697 -3.246695,3.246697 z"
         id="path25958"
         style="fill:#ffffff;fill-opacity:1;stroke-width:0.42394428;stroke:#397a4c;stroke-opacity:1;stroke-miterlimit:4;stroke-dasharray:none" />
    </g>
  </g>
</svg>
