<?xml version="1.0" encoding="UTF-8"?>
<!-- Created with Inkscape (http://www.inkscape.org/) -->
<svg width="128.99mm" height="128.99mm" version="1.1" viewBox="0 0 128.99 128.99" xmlns="http://www.w3.org/2000/svg">
 <g transform="translate(-81.319 -56.535)">
  <circle cx="145.82" cy="121.03" r="63.613" fill="#46e94b" fill-opacity=".44177" stroke="#397a4c" stroke-width="1.765"/>
  <g transform="matrix(2.5021 0 0 2.5021 114.91 68.643)">
   <path d="m0 0h24v24h-24z" fill="none"/>
   <path d="m13.83 5.1698c1.1 0 2-0.9 2-2s-0.9-2-2-2-2 0.9-2 2 0.9 2 2 2zm-3.7 3.4-2.56 12.91c-0.13 0.61 0.35 1.19 0.98 1.19h0.08c0.47 0 0.87-0.32 0.98-0.78l1.62-7.22 2.1 2v5c0 0.55 0.45 1 1 1s1-0.45 1-1v-5.64c0-0.55-0.22-1.07-0.62-1.45l-1.48-1.41 0.6-3c1.07 1.24 2.62 2.13 4.36 2.41 0.6 0.09 1.14-0.39 1.14-1 0-0.49-0.36-0.9-0.85-0.98-1.52-0.25-2.78-1.15-3.45-2.33l-1-1.6c-0.56-0.89-1.68-1.25-2.65-0.84l-3.83 1.62c-0.74 0.32-1.22 1.04-1.22 1.85v2.37c0 0.55 0.45 1 1 1s1-0.45 1-1v-2.4l1.8-0.7" fill="#fff" fill-opacity=".99197" stroke="#397a4c" stroke-width=".45602"/>
  </g>
 </g>
</svg>
