<?xml version="1.0" standalone="no"?><svg xmlns="http://www.w3.org/2000/svg" viewBox="0 0 1440 320"><path fill="#8E67FD" fill-opacity="1" d="M0,128L30,117.3C60,107,120,85,180,117.3C240,149,300,235,360,224C420,213,480,107,540,101.3C600,96,660,192,720,224C780,256,840,224,900,197.3C960,171,1020,149,1080,128C1140,107,1200,85,1260,101.3C1320,117,1380,171,1410,197.3L1440,224L1440,0L1410,0C1380,0,1320,0,1260,0C1200,0,1140,0,1080,0C1020,0,960,0,900,0C840,0,780,0,720,0C660,0,600,0,540,0C480,0,420,0,360,0C300,0,240,0,180,0C120,0,60,0,30,0L0,0Z"></path></svg>